<svg width="40" height="40" viewBox="0 0 40 40" fill="none" xmlns="http://www.w3.org/2000/svg">
<path d="M3.01159 20.0764C3.01227 14.2741 1.95035 5.30702 19.9913 3.19711C22.4678 2.66963 28.3757 2.88062 32.1962 7.9444C36.9717 14.2741 36.4413 12.6915 36.9719 20.0764C37.3964 25.9843 32.9039 31.3294 30.6045 33.2635C29.0127 34.6701 24.8738 37.3778 21.0534 36.9559C16.2779 36.4284 11.5032 36.9559 7.25737 31.6811C3.04237 26.4445 3.01533 20.8509 3.01167 20.0922L3.01159 20.0764Z" fill="white"/>
<path d="M20 40C17.2333 40 14.6333 39.4747 12.2 38.424C9.76666 37.3733 7.65 35.9487 5.85 34.15C4.05 32.3513 2.62533 30.2347 1.576 27.8C0.526669 25.3653 0.00133586 22.7653 2.53164e-06 20C-0.0013308 17.2347 0.524002 14.6347 1.576 12.2C2.628 9.76533 4.05267 7.64866 5.85 5.85C7.64733 4.05133 9.764 2.62667 12.2 1.576C14.636 0.525333 17.236 0 20 0C22.764 0 25.364 0.525333 27.8 1.576C30.236 2.62667 32.3526 4.05133 34.15 5.85C35.9473 7.64866 37.3726 9.76533 38.426 12.2C39.4793 14.6347 40.004 17.2347 40 20C39.996 22.7653 39.4706 25.3653 38.424 27.8C37.3773 30.2347 35.9526 32.3513 34.15 34.15C32.3473 35.9487 30.2306 37.374 27.8 38.426C25.3693 39.478 22.7693 40.0027 20 40ZM20 36C24.4667 36 28.25 34.45 31.35 31.35C34.45 28.25 36 24.4667 36 20C36 15.5333 34.45 11.75 31.35 8.65C28.25 5.55 24.4667 4 20 4C15.5333 4 11.75 5.55 8.65 8.65C5.55 11.75 4 15.5333 4 20C4 24.4667 5.55 28.25 8.65 31.35C11.75 34.45 15.5333 36 20 36ZM19 30H23V10H15V14H19V30Z" fill="#B1ED89"/>
</svg>
