<svg width="28" height="28" viewBox="0 0 28 28" fill="none" xmlns="http://www.w3.org/2000/svg">
<path d="M19.834 11.6667C19.834 13.5765 18.9182 15.2717 17.496 16.3368L18.896 18.2035C19.9123 17.4436 20.7372 16.4569 21.3051 15.3221C21.873 14.1873 22.1682 12.9356 22.1673 11.6667H19.834ZM14.0007 5.83333C15.5478 5.83333 17.0315 6.44792 18.1254 7.54188C19.2194 8.63584 19.834 10.1196 19.834 11.6667H22.1673C22.1673 9.50073 21.3069 7.42351 19.7754 5.89196C18.2438 4.36041 16.1666 3.5 14.0007 3.5V5.83333ZM8.16732 11.6667C8.16732 10.1196 8.7819 8.63584 9.87586 7.54188C10.9698 6.44792 12.4536 5.83333 14.0007 5.83333V3.5C11.8347 3.5 9.7575 4.36041 8.22595 5.89196C6.6944 7.42351 5.83399 9.50073 5.83399 11.6667H8.16732ZM10.5053 16.3368C9.77884 15.7942 9.18914 15.0895 8.78323 14.2786C8.37732 13.4678 8.16641 12.5734 8.16732 11.6667H5.83399C5.83308 12.9356 6.12832 14.1873 6.69623 15.3221C7.26414 16.4569 8.08905 17.4436 9.10532 18.2035L10.5053 16.3368ZM12.8305 23.0335C12.7935 21.2546 12.426 19.498 11.7467 17.8535L9.59065 18.746C10.1577 20.1192 10.4668 21.5892 10.4983 23.0825L12.8305 23.0335ZM15.5663 22.4128C15.0802 22.656 14.5442 22.7826 14.0007 22.7826C13.4571 22.7826 12.9211 22.656 12.435 22.4128L11.392 24.5C12.202 24.905 13.0951 25.1158 14.0007 25.1158C14.9062 25.1158 15.7994 24.905 16.6093 24.5L15.5663 22.4128ZM16.2547 17.8547C15.5751 19.4988 15.2072 21.2549 15.1697 23.0335L17.503 23.0825C17.5345 21.5892 17.8437 20.1192 18.4107 18.746L16.2547 17.8547ZM16.6093 24.5C16.8732 24.3675 17.0959 24.1654 17.2534 23.9156C17.4109 23.6658 17.4972 23.3778 17.503 23.0825L15.1697 23.0335C15.1729 22.9037 15.2115 22.7773 15.2814 22.6679C15.3514 22.5585 15.4499 22.4703 15.5663 22.4128L16.6093 24.5ZM10.4983 23.0825C10.51 23.6705 10.8413 24.2247 11.392 24.5L12.435 22.4128C12.5514 22.4703 12.6499 22.5585 12.7199 22.6679C12.7898 22.7773 12.8284 22.9037 12.8317 23.0335L10.4983 23.0825ZM9.10532 18.2035C9.28032 18.3365 9.38415 18.4135 9.45649 18.4718C9.52999 18.5325 9.51599 18.5302 9.48332 18.4882L11.3267 17.0578C11.1085 16.7755 10.7702 16.5352 10.5053 16.3368L9.10532 18.2035ZM11.7467 17.8535C11.6557 17.633 11.5402 17.332 11.3267 17.0578L9.48332 18.4882C9.46815 18.4672 9.46465 18.4567 9.47982 18.4882L9.52065 18.5792L9.59065 18.746L11.7467 17.8535ZM17.496 16.3368C17.2312 16.5352 16.8917 16.7767 16.6735 17.0578L18.518 18.4882C18.4865 18.529 18.4713 18.5325 18.5448 18.473C18.6172 18.4135 18.7198 18.3365 18.896 18.2047L17.496 16.3368ZM18.4107 18.746L18.4807 18.5792L18.5215 18.4882C18.5367 18.4567 18.5332 18.4672 18.518 18.4882L16.6735 17.0578C16.46 17.3332 16.3457 17.633 16.2547 17.8547L18.4107 18.746Z" fill="#333333"/>
<path d="M17.4911 18.666C16.4582 19.3572 15.2433 19.7262 14.0004 19.7262C12.7576 19.7262 11.5427 19.3572 10.5098 18.666" stroke="#333333" stroke-width="2"/>
</svg>
